<?xml version="1.0" standalone="no"?>
<!DOCTYPE svg PUBLIC "-//W3C//DTD SVG 20010904//EN"
 "http://www.w3.org/TR/2001/REC-SVG-20010904/DTD/svg10.dtd">
<svg version="1.0" xmlns="http://www.w3.org/2000/svg"
 width="335.000000pt" height="370.000000pt" viewBox="0 0 335.000000 370.000000"
 preserveAspectRatio="xMidYMid meet">

<g transform="translate(0.000000,370.000000) scale(0.100000,-0.100000)"
fill="#000000" stroke="none">
<path d="M163 3488 c3 -29 67 -726 143 -1548 75 -822 137 -1496 138 -1497 1 0
279 -76 618 -168 l618 -166 617 166 c340 92 618 168 619 168 1 1 63 675 138
1497 76 822 140 1519 143 1548 l6 52 -1523 0 -1523 0 6 -52z m2747 -230 c-1
-58 -226 -2608 -231 -2612 -3 -3 -227 -65 -499 -139 l-495 -133 -5 190 -5 190
-385 114 c-212 63 -387 116 -390 119 -5 5 -49 486 -49 551 l-1 42 195 0 c177
0 195 -2 195 -17 0 -9 5 -79 11 -154 l12 -137 203 -51 c112 -28 206 -51 209
-51 3 0 5 134 5 298 l0 299 -277 6 c-153 4 -347 7 -430 7 -84 0 -153 3 -154 8
0 4 -2 18 -4 32 -1 14 -6 63 -9 110 -4 47 -9 115 -12 151 l-6 66 49 20 c26 12
212 89 413 173 201 84 381 159 400 168 33 16 12 17 -430 22 l-465 5 -17 140
c-9 77 -19 161 -22 187 l-7 48 483 2 483 3 3 188 2 187 615 0 615 0 0 -32z"/>
</g>
</svg>
