<?xml version="1.0" standalone="no"?>
<!DOCTYPE svg PUBLIC "-//W3C//DTD SVG 20010904//EN"
 "http://www.w3.org/TR/2001/REC-SVG-20010904/DTD/svg10.dtd">
<svg version="1.0" xmlns="http://www.w3.org/2000/svg"
 width="585.000000pt" height="512.000000pt" viewBox="0 0 585.000000 512.000000"
 preserveAspectRatio="xMidYMid meet">

<g transform="translate(0.000000,512.000000) scale(0.100000,-0.100000)"
fill="#000000" stroke="none">
<path d="M4023 5105 c-42 -18 -66 -56 -66 -105 0 -55 21 -80 105 -130 380
-224 678 -546 874 -945 162 -331 229 -620 228 -990 0 -371 -70 -674 -230 -995
-184 -370 -434 -651 -784 -883 -98 -65 -371 -207 -398 -207 -9 0 -12 111 -12
468 l0 467 45 18 c68 28 130 89 167 165 30 62 33 74 33 162 -1 80 -5 103 -25
145 -23 48 -97 133 -132 151 -15 8 -15 17 -2 109 29 201 93 372 175 467 22 26
78 73 124 103 110 73 132 100 141 172 17 142 -15 300 -99 485 -86 189 -293
511 -473 738 -116 146 -375 412 -466 478 -234 170 -382 170 -616 0 -91 -66
-350 -332 -466 -478 -180 -227 -387 -549 -473 -738 -89 -195 -122 -371 -94
-503 14 -64 28 -80 145 -160 44 -30 97 -76 119 -104 80 -100 141 -267 170
-465 14 -93 14 -95 -7 -109 -44 -31 -91 -88 -120 -150 -77 -165 -5 -371 159
-457 l55 -29 0 -468 0 -468 -22 7 c-61 18 -284 136 -387 205 -438 291 -744
694 -910 1199 -115 351 -134 782 -51 1165 70 322 249 686 465 944 154 185 381
379 579 496 96 56 116 80 116 136 0 37 -24 85 -49 99 -46 24 -98 12 -194 -45
-645 -387 -1075 -1049 -1178 -1815 -17 -124 -17 -468 0 -595 60 -464 247 -904
537 -1264 304 -377 752 -673 1224 -811 l95 -28 3 524 c1 359 6 524 13 524 5 0
49 -11 97 -24 48 -13 99 -27 115 -30 l27 -6 0 -630 0 -630 -22 0 c-51 0 -321
62 -440 100 -424 135 -782 353 -1093 665 -372 371 -614 813 -729 1328 -44 195
-59 344 -59 577 0 303 37 545 128 829 25 76 45 155 45 174 0 97 -128 135 -193
57 -29 -34 -106 -264 -142 -425 -128 -575 -81 -1170 137 -1720 58 -147 181
-382 270 -516 218 -329 512 -624 833 -835 407 -267 907 -441 1348 -469 51 -4
102 -8 115 -11 l22 -4 0 740 0 740 125 0 125 0 0 -740 0 -740 23 4 c12 3 63 7
114 11 440 28 942 203 1348 469 236 155 502 397 674 614 501 633 719 1428 607
2222 -37 264 -129 596 -182 659 -51 61 -147 48 -181 -24 -19 -40 -22 -22 46
-236 90 -286 126 -548 118 -864 -8 -299 -46 -521 -133 -781 -284 -850 -959
-1496 -1819 -1743 -88 -25 -196 -48 -357 -76 l-28 -4 0 632 0 632 103 27 c56
14 110 29 120 33 16 7 17 -22 17 -520 l0 -527 35 6 c60 12 242 75 362 126 682
293 1212 916 1398 1644 58 228 70 330 70 616 0 286 -12 388 -70 616 -126 492
-414 949 -805 1276 -149 125 -402 289 -443 288 -7 -1 -26 -7 -44 -15z m-1710
-2752 c51 -21 121 -101 137 -158 24 -86 -6 -183 -76 -245 -51 -44 -93 -60
-159 -60 -190 0 -308 215 -203 370 71 103 184 138 301 93z m1407 5 c71 -27
144 -117 156 -193 14 -96 -45 -204 -137 -250 -98 -50 -211 -26 -287 60 -83 95
-83 221 1 312 78 84 167 108 267 71z"/>
</g>
</svg>
