<?xml version="1.0" standalone="no"?>
<!DOCTYPE svg PUBLIC "-//W3C//DTD SVG 20010904//EN"
 "http://www.w3.org/TR/2001/REC-SVG-20010904/DTD/svg10.dtd">
<svg version="1.0" xmlns="http://www.w3.org/2000/svg"
 width="600.000000pt" height="600.000000pt" viewBox="0 0 600.000000 600.000000"
 preserveAspectRatio="xMidYMid meet">

<g transform="translate(0.000000,600.000000) scale(0.100000,-0.100000)"
fill="#000000" stroke="none">
<path d="M360 5983 c-1 -46 474 -5359 480 -5366 8 -9 2118 -608 2145 -609 21
0 2155 598 2163 607 5 5 481 5310 482 5363 l0 22 -2635 0 c-2503 0 -2635 -1
-2635 -17z m4294 -1150 c-3 -38 -17 -177 -30 -311 -13 -134 -24 -252 -24 -263
0 -19 -20 -19 -1265 -19 l-1265 0 0 -27 c0 -16 11 -154 25 -308 14 -154 25
-292 25 -307 l0 -28 1210 0 c961 0 1210 -3 1210 -12 0 -7 -5 -40 -10 -73 -5
-33 -46 -476 -90 -985 -44 -509 -83 -938 -88 -954 l-7 -28 -665 -184 c-366
-101 -675 -184 -687 -184 -28 0 -1354 366 -1363 377 -4 4 -24 231 -44 503 -20
272 -39 505 -42 518 l-4 22 333 0 334 0 22 -262 c13 -145 24 -264 25 -265 1
-1 165 -46 366 -100 l365 -98 365 98 c201 54 367 100 369 102 3 4 80 783 81
823 l0 22 -1144 0 -1145 0 -5 43 c-5 35 -154 1711 -170 1905 l-5 62 1664 0
1664 0 -5 -67z"/>
</g>
</svg>
