<?xml version="1.0" standalone="no"?>
<!DOCTYPE svg PUBLIC "-//W3C//DTD SVG 20010904//EN"
 "http://www.w3.org/TR/2001/REC-SVG-20010904/DTD/svg10.dtd">
<svg version="1.0" xmlns="http://www.w3.org/2000/svg"
 width="719.000000pt" height="686.000000pt" viewBox="0 0 719.000000 686.000000"
 preserveAspectRatio="xMidYMid meet">

<g transform="translate(0.000000,686.000000) scale(0.100000,-0.100000)"
fill="#000000" stroke="none">
<path d="M827 6123 c-4 -3 -7 -1221 -7 -2705 l0 -2698 2770 0 2770 0 -2 2702
-3 2703 -2761 3 c-1518 1 -2764 -1 -2767 -5z m4049 -1238 c134 -40 212 -194
171 -336 -21 -70 -64 -121 -130 -153 -145 -70 -302 -30 -382 99 -27 44 -30 56
-30 134 0 76 3 92 27 133 69 116 204 165 344 123z m-1412 -92 c140 -430 858
-2644 862 -2661 l6 -22 -268 2 -268 3 -121 380 -121 380 -434 0 -433 0 -116
-382 -116 -383 -257 0 c-142 0 -258 3 -258 7 0 3 58 187 129 407 71 221 261
811 421 1311 160 501 298 931 306 958 l16 47 318 0 318 0 16 -47z m1566 -1698
l0 -985 -250 0 -250 0 0 985 0 985 250 0 250 0 0 -985z"/>
<path d="M3106 4419 c-3 -8 -32 -122 -66 -254 -33 -132 -107 -388 -164 -570
l-104 -330 341 -3 c187 -1 342 0 345 2 2 3 -50 177 -117 387 -67 210 -144 470
-172 578 -28 108 -53 198 -55 200 -2 2 -6 -2 -8 -10z"/>
</g>
</svg>
