<?xml version="1.0" standalone="no"?>
<!DOCTYPE svg PUBLIC "-//W3C//DTD SVG 20010904//EN"
 "http://www.w3.org/TR/2001/REC-SVG-20010904/DTD/svg10.dtd">
<svg version="1.0" xmlns="http://www.w3.org/2000/svg"
 width="240.000000pt" height="240.000000pt" viewBox="0 0 240.000000 240.000000"
 preserveAspectRatio="xMidYMid meet">

<g transform="translate(0.000000,240.000000) scale(0.100000,-0.100000)"
fill="#000000" stroke="none">
<path d="M1715 1297 c-97 -33 -154 -81 -193 -165 -21 -48 -24 -64 -20 -140 9
-177 54 -221 390 -377 142 -65 118 -210 -36 -223 -82 -7 -146 19 -200 79 -24
27 -47 49 -50 49 -3 0 -44 -23 -91 -50 l-85 -51 16 -31 c42 -81 159 -161 273
-188 71 -17 232 -8 291 15 132 53 200 149 200 285 0 172 -58 242 -294 355 -96
46 -161 83 -175 100 -52 67 -5 155 84 155 57 0 81 -11 121 -57 l31 -35 86 57
87 56 -20 29 c-72 101 -154 143 -285 147 -55 2 -105 -2 -130 -10z"/>
<path d="M1078 876 l-3 -424 -24 -26 c-51 -54 -150 -43 -198 22 -15 20 -30 41
-34 46 -4 5 -48 -15 -98 -44 l-90 -54 22 -39 c59 -105 179 -167 321 -167 176
0 285 81 322 239 10 42 14 160 14 464 l0 407 -115 0 -114 0 -3 -424z"/>
</g>
</svg>
