<?xml version="1.0" standalone="no"?>
<!DOCTYPE svg PUBLIC "-//W3C//DTD SVG 20010904//EN"
 "http://www.w3.org/TR/2001/REC-SVG-20010904/DTD/svg10.dtd">
<svg version="1.0" xmlns="http://www.w3.org/2000/svg"
 width="300.000000pt" height="292.000000pt" viewBox="0 0 300.000000 292.000000"
 preserveAspectRatio="xMidYMid meet">

<g transform="translate(0.000000,292.000000) scale(0.100000,-0.100000)"
fill="#000000" stroke="none">
<path d="M1270 2670 l-1035 -5 -3 -1222 -2 -1223 1256 -2 c691 -2 1260 0 1265
3 5 3 8 503 7 1228 l-3 1223 -225 2 c-124 0 -691 -1 -1260 -4z m21 -520 c136
-43 215 -134 245 -281 17 -81 17 -92 1 -170 -20 -105 -43 -152 -99 -206 -88
-84 -164 -113 -325 -120 l-123 -6 -2 -226 -3 -226 -97 -3 -98 -3 0 624 c0 343
3 627 7 630 3 4 102 7 218 7 185 0 220 -3 276 -20z m872 -318 c27 -11 27 -13
27 -103 0 -83 -2 -90 -17 -84 -104 43 -218 53 -274 24 -46 -23 -59 -64 -33
-108 15 -26 111 -89 199 -132 17 -7 55 -39 86 -70 49 -48 58 -63 69 -114 29
-140 -26 -259 -148 -317 -91 -43 -372 -26 -404 25 -9 14 -11 171 -2 180 3 3
20 -3 37 -13 73 -43 225 -64 276 -37 39 20 65 61 57 93 -10 39 -54 76 -162
136 -168 92 -230 190 -206 322 19 98 77 164 179 202 45 17 271 14 316 -4z"/>
<path d="M990 1770 l0 -233 88 6 c97 6 164 26 201 60 83 77 86 254 4 328 -60
54 -82 62 -190 67 l-103 5 0 -233z"/>
</g>
</svg>
