<?xml version="1.0" standalone="no"?>
<!DOCTYPE svg PUBLIC "-//W3C//DTD SVG 20010904//EN"
 "http://www.w3.org/TR/2001/REC-SVG-20010904/DTD/svg10.dtd">
<svg version="1.0" xmlns="http://www.w3.org/2000/svg"
 width="1000.000000pt" height="1000.000000pt" viewBox="0 0 1000.000000 1000.000000"
 preserveAspectRatio="xMidYMid meet">

<g transform="translate(0.000000,1000.000000) scale(0.100000,-0.100000)"
fill="#000000" stroke="none">
<path d="M5443 7604 c-937 -937 -1706 -1704 -1711 -1704 -4 0 -77 55 -162 122
-85 67 -384 302 -665 523 -895 705 -1035 815 -1187 936 l-148 119 -430 -215
-430 -215 2 -2146 3 -2146 427 -215 426 -216 178 139 c97 76 233 182 300 234
67 52 414 322 770 600 356 278 710 554 788 613 l140 108 1706 -1706 1706
-1706 259 106 c143 58 422 172 620 252 198 80 538 218 755 307 217 90 421 173
453 185 l57 23 -2 3430 -3 3430 -430 172 c-931 375 -1693 676 -1706 675 -8 0
-780 -767 -1716 -1705z m1717 -2579 c0 -960 -3 -1745 -7 -1745 -8 0 -75 51
-513 390 -118 92 -336 261 -485 375 -148 115 -362 281 -475 369 -191 149 -291
226 -643 496 -75 58 -136 108 -137 112 0 3 66 58 148 120 81 63 388 301 682
529 1090 846 1419 1099 1426 1099 2 0 4 -785 4 -1745z m-4333 -35 c-17 -19
-106 -111 -197 -205 -91 -93 -307 -316 -480 -495 -500 -517 -573 -589 -582
-584 -10 6 -11 2588 -1 2598 4 4 296 -282 650 -636 l643 -643 -33 -35z"/>
</g>
</svg>
